<svg xmlns="http://www.w3.org/2000/svg" xmlns:xlink="http://www.w3.org/1999/xlink" width="70" height="70" version="1.1" viewBox="0 0 70 70"><title>Icon_Angular</title><desc>Created with Sketch.</desc><g id="Icon_Angular" fill="none" fill-rule="evenodd" stroke="none" stroke-width="1"><g id="Group-5" transform="translate(10.000000, 8.000000)"><polygon id="Fill-1" fill="#000" points="25.22 0 0 8.967 3.923 42.033 25.22 53.802 46.797 41.893 51 8.827"/><polygon id="Fill-2" fill="#DE3641" points="25.22 0 0 8.967 3.923 42.033 25.22 53.802"/><polygon id="Fill-3" fill="#B13138" points="25.22 0 25.22 53.802 46.797 41.893 51 8.827"/><polygon id="Fill-4" fill="#FFF" points="25.22 6.025 41.613 41.052 36.008 41.052 32.505 33.066 25.22 33.066 25.22 28.302 30.544 28.302 25.22 17.29 20.736 28.302 25.22 28.302 25.22 33.066 18.551 33.066 15.412 41.052 9.387 41.052"/></g></g></svg>